# xmcd
#
# Track frame offsets:
#	150
#	12630
#	32004
#	53907
#	74032
#	92089
#	111279
#	128108
#	141888
#	161019
#	190521
#	207180
#	237728
#	251110
#
# Disc length: 3562 seconds
#
# Revision: 0
# Processed by: cddbd v1.5.2PL0 Copyright (c) Steve Scherf et al.
# Submitted via: EZCDAudioConverter 2.1.7.1
#
DISCID=d20de80e
DTITLE=Joni Mitchell - Love Has Many Faces 2/4
DYEAR=1900
DGENRE=
TTITLE0=Court And Spark
TTITLE1=No Apologies
TTITLE2=Trouble Child
TTITLE3=Not To Blame
TTITLE4=Nothing Can Be Done
TTITLE5=Comes Love
TTITLE6=Moon At The Window
TTITLE7=Blue
TTITLE8=Tax Free
TTITLE9=The Wolf That Lives In Lindsey
TTITLE10=Hana
TTITLE11=Hejira
TTITLE12=Stay In Touch
TTITLE13=Night Ride Home
EXTD=
EXTT0=
EXTT1=
EXTT2=
EXTT3=
EXTT4=
EXTT5=
EXTT6=
EXTT7=
EXTT8=
EXTT9=
EXTT10=
EXTT11=
EXTT12=
EXTT13=
PLAYORDER=
